 <svg
            id="10015.io"
            viewBox="0 0 480 480"
            xmlns="http://www.w3.org/2000/svg"
            xmlns:xlink="http://www.w3.org/1999/xlink"
          >
            <path
              fill="#ff4747"
              d="M439.5,284.5Q440,329,381,330Q322,331,299,340Q276,349,251,359Q226,369,177,401.5Q128,434,131,375.5Q134,317,140,288.5Q146,260,97.5,229.5Q49,199,53.5,153.5Q58,108,126.5,135Q195,162,208,112Q221,62,251.5,86.5Q282,111,332,96.5Q382,82,419.5,112.5Q457,143,448,191.5Q439,240,439.5,284.5Z"
            />
          </svg>