<svg id="visual" viewBox="0 0 900 600" width="900" height="600" xmlns="http://www.w3.org/2000/svg" xmlns:xlink="http://www.w3.org/1999/xlink" version="1.1"><rect x="0" y="0" width="900" height="600" fill="#002233"></rect><path d="M0 380L21.5 380.2C43 380.3 86 380.7 128.8 392.3C171.7 404 214.3 427 257.2 444.5C300 462 343 474 385.8 463C428.7 452 471.3 418 514.2 412.8C557 407.7 600 431.3 642.8 430.2C685.7 429 728.3 403 771.2 411C814 419 857 461 878.5 482L900 503L900 601L878.5 601C857 601 814 601 771.2 601C728.3 601 685.7 601 642.8 601C600 601 557 601 514.2 601C471.3 601 428.7 601 385.8 601C343 601 300 601 257.2 601C214.3 601 171.7 601 128.8 601C86 601 43 601 21.5 601L0 601Z" fill="#F99C1D" stroke-linecap="round" stroke-linejoin="miter"></path></svg>